<mxfile
  host="Electron" 
  agent="Mozilla/5.0 (Macintosh; Intel Mac OS X 10_15_7) AppleWebKit/537.36 (KHTML, like Gecko) draw.io/25.0.2 Chrome/128.0.6613.186 Electron/32.2.5 Safari/537.36" 
  version="25.0.2"
  >
  <diagram
    name="-"
    >
    <mxGraphModel
      grid="1" 
      gridSize="10" 
      guides="1" 
      tooltips="1" 
      connect="1" 
      arrows="1" 
      fold="1" 
      page="1" 
      pageScale="1" 
      pageWidth="1" 
      pageHeight="1" 
      math="0" 
      shadow="0"
      >
      <root>
        <mxCell
          id="page"
          />
        <mxCell
          id="root" 
          parent="page"
          />
        <mxCell
          style="verticalAlign=top;aspect=fixed;align=center;spacingLeft=5;spacingRight=5;spacingBottom=5;strokeColor=none;" 
          id="shape_" 
          parent="root" 
          value=" " 
          vertex="1"
          >
          <mxGeometry
            as="geometry" 
            width="120" 
            height="120" 
            x="0" 
            y="0"
            />
          </mxCell>
        <mxCell
          style="rounded=1;whiteSpace=wrap;verticalAlign=top;align=center;sketch=0;html=1;labelPosition=center;verticalLabelPosition=bottom;spacingTop=-6;fontSize=11;fontStyle=1;fontColor=#999999;shape=image;aspect=fixed;imageAspect=0;image=data:image/svg+xml,PHN2ZyB4bWxucz0iaHR0cDovL3d3dy53My5vcmcvMjAwMC9zdmciIHhtbG5zOnY9Imh0dHBzOi8vdmVjdGEuaW8vbmFubyIgd2lkdGg9IjM3OC4zOTE0MTUzMjk4OTUiIGhlaWdodD0iMzc4LjA3Mzc3NjA3MzI4MTMiIHZpZXdCb3g9Ii0wLjA2OTAwMDI0NDE0MDYyNSAtMC4wODA5OTkzNzQzODk2NDg0NCAxMDAuMTE1OTk3MzE0NDUzMTIgMTAwLjAzMjAwNTMxMDA1ODYiPiYjeGE7PHN0eWxlIHR5cGU9InRleHQvY3NzIj4mI3hhOwkuc3Qwe2ZpbGw6IzQyODVmNDt9JiN4YTs8L3N0eWxlPiYjeGE7CTxwYXRoIGNsYXNzPSJzdDAiIGQ9Ik02Mi41NzEgODcuNTUxYzAgNi44NDgtNS41NTIgMTIuNC0xMi40IDEyLjRzLTEyLjQtNS41NTItMTIuNC0xMi40IDUuNTUyLTEyLjQgMTIuNC0xMi40IDEyLjQgNS41NTIgMTIuNCAxMi40em0tMzcuODQtMzcuNjU3YTEyLjQgMTIuNCAwIDAgMS0xMi40IDEyLjRjLTYuODQ4IDAtMTIuNC01LjU1Mi0xMi40LTEyLjRzNS41NTItMTIuNCAxMi40LTEyLjRhMTIuNCAxMi40IDAgMCAxIDEyLjQgMTIuNHptMzcuODQgMGMwIDYuODQ4LTUuNTUyIDEyLjQtMTIuNCAxMi40cy0xMi40LTUuNTUyLTEyLjQtMTIuNCA1LjU1Mi0xMi40IDEyLjQtMTIuNCAxMi40IDUuNTUyIDEyLjQgMTIuNHptMzcuNDc2LTM3LjU3NWMwIDYuODQ4LTUuNTUyIDEyLjQtMTIuNCAxMi40YTEyLjQgMTIuNCAwIDAgMS0xMi40LTEyLjQgMTIuNCAxMi40IDAgMCAxIDEyLjQtMTIuNGM2Ljg0OCAwIDEyLjQgNS41NTIgMTIuNCAxMi40em0tMTIuNCAyNS4zNjJjLTYuNzE1IDAtMTIuMjEzIDUuNDk3LTEyLjIxMyAxMi4yMTNzNS40OTcgMTIuMjEzIDEyLjIxMyAxMi4yMTNTOTkuODYgNTYuNjA5IDk5Ljg2IDQ5Ljg5NHMtNS40OTctMTIuMjEzLTEyLjIxMy0xMi4yMTN6bTAgNWM0LjAxMyAwIDcuMjEzIDMuMiA3LjIxMyA3LjIxM3MtMy4yIDcuMjEzLTcuMjEzIDcuMjEzLTcuMjEzLTMuMi03LjIxMy03LjIxMyAzLjItNy4yMTMgNy4yMTMtNy4yMTN6bTAgMzIuNjU2Yy02LjcxNSAwLTEyLjIxMyA1LjQ5Ny0xMi4yMTMgMTIuMjEzczUuNDk3IDEyLjIxNSAxMi4yMTMgMTIuMjE1Uzk5Ljg2IDk0LjI2NiA5OS44NiA4Ny41NXMtNS40OTctMTIuMjEzLTEyLjIxMy0xMi4yMTN6bTAgNWM0LjAxMyAwIDcuMjEzIDMuMiA3LjIxMyA3LjIxM3MtMy4yIDcuMjE1LTcuMjEzIDcuMjE1LTcuMjEzLTMuMjAyLTcuMjEzLTcuMjE1IDMuMi03LjIxMyA3LjIxMy03LjIxM3ptLTc1LjMxNi01QzUuNjE2IDc1LjMzNy4xMTggODAuODM1LjExOCA4Ny41NXM1LjQ5NyAxMi4yMTUgMTIuMjEzIDEyLjIxNSAxMi4yMTMtNS40OTkgMTIuMjEzLTEyLjIxNS01LjQ5Ny0xMi4yMTMtMTIuMjEzLTEyLjIxM3ptMCA1YzQuMDEzIDAgNy4yMTMgMy4yIDcuMjEzIDcuMjEzcy0zLjIgNy4yMTUtNy4yMTMgNy4yMTUtNy4yMTMtMy4yMDItNy4yMTMtNy4yMTUgMy4yLTcuMjEzIDcuMjEzLTcuMjEzem0wLTgwLjIzQzUuNjE2LjEwNy4xMTggNS42MDQuMTE4IDEyLjMyczUuNDk3IDEyLjIxMyAxMi4yMTMgMTIuMjEzIDEyLjIxMy01LjQ5NyAxMi4yMTMtMTIuMjEzUzE5LjA0Ny4xMDcgMTIuMzMxLjEwN3ptMCA1YzQuMDEzIDAgNy4yMTMgMy4yIDcuMjEzIDcuMjEzcy0zLjIgNy4yMTMtNy4yMTMgNy4yMTMtNy4yMTMtMy4yLTcuMjEzLTcuMjEzIDMuMi03LjIxMyA3LjIxMy03LjIxM3ptMzcuODQtNWMtNi43MTUgMC0xMi4yMTMgNS40OTctMTIuMjEzIDEyLjIxM3M1LjQ5NyAxMi4yMTMgMTIuMjEzIDEyLjIxMyAxMi4yMTMtNS40OTcgMTIuMjEzLTEyLjIxM1M1Ni44ODYuMTA3IDUwLjE3MS4xMDd6bTAgNWM0LjAxMyAwIDcuMjEzIDMuMiA3LjIxMyA3LjIxM3MtMy4yIDcuMjEzLTcuMjEzIDcuMjEzLTcuMjEzLTMuMi03LjIxMy03LjIxMyAzLjItNy4yMTMgNy4yMTMtNy4yMTN6Ii8+JiN4YTs8L3N2Zz4;Tk2NjEgLTcuMjEyODksLTcuMjEyODkgMCwtNC4wMTMyMjkgMy4xOTk2NywtNy4yMTI4OTEgNy4yMTI4OSwtNy4yMTI4OTEgeiIvPiYjeGE7ICA8L2c+JiN4YTs8L3N2Zz4=;strokeColor=none;" 
          id="cloud_test_lab_" 
          parent="shape_" 
          value=" " 
          vertex="1"
          >
          <mxGeometry
            as="geometry" 
            width="60" 
            height="60" 
            x="30" 
            y="30"
            />
          </mxCell>
        </root>
      </mxGraphModel>
    </diagram>
  </mxfile>